<svg version="1.2" xmlns="http://www.w3.org/2000/svg" viewBox="0 0 67 64" width="67" height="64"><defs><linearGradient id="P" gradientUnits="userSpaceOnUse"/><linearGradient id="g1" x1="36" y1="26" x2="62" y2="0" href="#P"><stop stop-color="#ffbc27"/><stop offset="1" stop-color="#fde252"/></linearGradient><linearGradient id="g2" x1="17.5" y1="61.3" x2="39.5" y2="39.2" href="#P"><stop stop-color="#ffbc27"/><stop offset="1" stop-color="#fde252"/></linearGradient><linearGradient id="g3" x1="37.5" y1="41" x2="60.5" y2="18" href="#P"><stop stop-color="#d6f2fd"/><stop offset="1" stop-color="#e5f5fd"/></linearGradient></defs><style>.A{fill:url(#g1)}.B{fill:url(#g2)}.C{fill:#fff}.D{fill:url(#g3)}</style><circle class="A" cx="49" cy="13" r="13"/><path class="B" d="m31.3 37c1.6 0 2.3 1.2 1.5 2.6l-3 5.1c-0.8 1.4-0.1 2.5 1.6 2.4l6.6-0.3c1.7-0.1 2 0.7 0.7 1.8l-17.4 14.3c-1.3 1.1-1.7 0.7-0.9-0.7l4.8-8.9c0.8-1.5 0.1-2.6-1.6-2.4l-4.3 0.3c-1.6 0.1-2.3-1-1.5-2.4l5.3-9.2c0.8-1.4 2.9-2.6 4.5-2.6z"/><path class="C" d="m13.3 41c-7.4 0-13.3-5.9-13.3-13.1c0-7.2 5.9-13 13.3-13q0.1 0 0.2 0c2.7-5.9 8.7-10 15.6-10c8.8 0 16.1 6.6 17 15q0.1 0 0.1 0c6 0 10.8 4.7 10.8 10.5c0 5.8-4.8 10.6-10.8 10.6"/><path class="D" d="m39.4 41c-4.7 0-8.4-3.7-8.4-8.3c0-4.6 3.7-8.4 8.4-8.4q0 0 0.1 0c1.7-3.7 5.5-6.3 9.9-6.3c5.5 0 10.1 4.2 10.7 9.5q0 0 0.1 0c3.7 0 6.8 3 6.8 6.8c0 3.7-3.1 6.7-6.8 6.7"/></svg>