<svg version="1.2" xmlns="http://www.w3.org/2000/svg" viewBox="0 0 67 44" width="67" height="44"><defs><linearGradient id="P" gradientUnits="userSpaceOnUse"/><linearGradient id="g1" x1="17.5" y1="34" x2="51.5" y2="0" href="#P"><stop stop-color="#0cf"/><stop offset="1" stop-color="#5ddefe"/></linearGradient><linearGradient id="g2" x1="8" y1="44" x2="26" y2="26" href="#P"><stop stop-color="#d6f2fd"/><stop offset="1" stop-color="#e5f5fd"/></linearGradient></defs><style>.A{fill:url(#g1)}.B{fill:url(#g2)}</style><path class="A" d="m51.3 34c-2.8 0-5.1-2.3-5.1-5.1q0-1.1 0.4-2h-29.3c-0.9 0-1.6-0.7-1.6-1.5c0-0.9 0.7-1.6 1.6-1.6h33.9q0 0 0 0q0 0 0.1 0c2.8 0 5.1 2.3 5.1 5.1c0 2.8-2.3 5.1-5.1 5.1zm10.6-8.8c-2.9 0-5.2-2.3-5.2-5.1q0.1-1 0.4-1.9h-53.6c-0.8 0-1.5-0.7-1.5-1.6c0-0.9 0.7-1.6 1.5-1.6h58.2q0.1 0 0.1 0q0 0 0.1 0c2.8 0 5.1 2.3 5.1 5.1c0 2.8-2.3 5.1-5.1 5.1zm-5.5-20.2c0 2.9-2.3 5.1-5.1 5.1q-0.1 0-0.1 0q0 0 0 0h-23.3c-0.9 0-1.6-0.7-1.6-1.5c0-0.9 0.7-1.6 1.6-1.6h18.7q-0.4-0.9-0.4-2c0-2.8 2.3-5 5.1-5c2.8 0 5.1 2.2 5.1 5z"/><path class="B" d="m2 33c1.1 0 2 0.9 2 2c0 1.1-0.9 2-2 2c-1.1 0-2-0.9-2-2c0-1.1 0.9-2 2-2m10 0c1.1 0 2 0.9 2 2c0 1.1-0.9 2-2 2c-1.1 0-2-0.9-2-2c0-1.1 0.9-2 2-2m10 0c1.1 0 2 0.9 2 2c0 1.1-0.9 2-2 2c-1.1 0-2-0.9-2-2c0-1.1 0.9-2 2-2m10 0c1.1 0 2 0.9 2 2c0 1.1-0.9 2-2 2c-1.1 0-2-0.9-2-2c0-1.1 0.9-2 2-2m-23 9c0 1.1-0.9 2-2 2c-1.1 0-2-0.9-2-2c0-1.1 0.9-2 2-2c1.1 0 2 0.9 2 2zm10 0c0 1.1-0.9 2-2 2c-1.1 0-2-0.9-2-2c0-1.1 0.9-2 2-2c1.1 0 2 0.9 2 2zm10 0c0 1.1-0.9 2-2 2c-1.1 0-2-0.9-2-2c0-1.1 0.9-2 2-2c1.1 0 2 0.9 2 2zm-22-12c-1.1 0-2-0.9-2-2c0-1.1 0.9-2 2-2c1.1 0 2 0.9 2 2m0 0c0 1.1-0.9 2-2 2"/></svg>