<svg version="1.2" xmlns="http://www.w3.org/2000/svg" viewBox="0 0 68 68" width="68" height="68"><defs><linearGradient id="P" gradientUnits="userSpaceOnUse"/><linearGradient id="g1" x1="38.9" y1="28.9" x2="67.9" y2="0" href="#P"><stop stop-color="#0cf"/><stop offset="1" stop-color="#5ddefe"/></linearGradient><linearGradient id="g2" x1="10.5" y1="44" x2="46.5" y2="7.9" href="#P"><stop stop-color="#d6f2fd"/><stop offset="1" stop-color="#e5f5fd"/></linearGradient><linearGradient id="g3" x1="25.1" y1="67.7" x2="40.8" y2="52" href="#P"><stop stop-color="#0cf"/><stop offset="1" stop-color="#5ddefe"/></linearGradient></defs><style>.A{fill:url(#g1)}.B{fill:url(#g2)}.C{fill:#fff}.D{fill:url(#g3)}</style><path class="A" d="m53.7 28.9c-8.2 0-14.8-6.6-14.8-14.7c0-6.5 4.4-12.4 10.7-14.2c0.3 0 0.6 0 0.8 0.2c0.2 0.2 0.2 0.5 0.2 0.8q-0.6 1.8-0.6 3.6c0 7.3 6 13.2 13.2 13.2q1.9 0 3.7-0.5c0.3-0.1 0.5 0 0.7 0.2c0.2 0.2 0.3 0.5 0.2 0.8c-1.8 6.3-7.6 10.6-14.1 10.6z"/><path class="B" d="m13.3 44c-7.4 0-13.3-5.9-13.3-13.1c0-7.2 5.9-13 13.3-13q0.1 0 0.2 0c2.7-5.9 8.7-10 15.6-10c8.8 0 16.1 6.6 17 15q0.1 0 0.1 0c6 0 10.8 4.7 10.8 10.5c0 5.8-4.8 10.6-10.8 10.6"/><path class="C" d="m39.4 44c-4.7 0-8.4-3.7-8.4-8.3c0-4.6 3.7-8.4 8.4-8.4q0 0 0.1 0c1.7-3.7 5.5-6.3 9.9-6.3c5.5 0 10.1 4.2 10.7 9.5q0 0 0.1 0c3.7 0 6.8 3 6.8 6.8c0 3.7-3.1 6.7-6.8 6.7"/><path class="D" d="m12.3 60.7q-0.6 0-1-0.2c-1-0.6-1.3-1.8-0.8-2.7l2.9-4.9c0.6-0.9 1.8-1.2 2.8-0.7c0.9 0.6 1.3 1.8 0.7 2.7l-2.9 4.9c-0.4 0.6-1 0.9-1.7 0.9zm16.2 0q-0.5 0-1-0.2c-1-0.6-1.3-1.8-0.8-2.7l2.9-4.9c0.6-0.9 1.8-1.2 2.8-0.7c1 0.6 1.3 1.8 0.7 2.7l-2.9 4.9c-0.3 0.6-1 0.9-1.7 0.9zm16.2 0q-0.5 0-1-0.2c-1-0.6-1.3-1.8-0.7-2.7l2.9-4.9c0.5-0.9 1.8-1.2 2.7-0.7c1 0.6 1.3 1.8 0.8 2.7l-3 4.9c-0.3 0.6-1 0.9-1.7 0.9zm-27.4 7q-0.5 0-1-0.2c-1-0.6-1.3-1.8-0.7-2.7l2.9-4.9c0.5-0.9 1.7-1.2 2.7-0.7c1 0.6 1.3 1.8 0.7 2.7l-2.9 4.9c-0.3 0.6-1 0.9-1.7 0.9zm16.7 0q-0.5 0-1-0.2c-0.9-0.6-1.3-1.8-0.7-2.7l2.9-4.9c0.5-0.9 1.8-1.2 2.7-0.7c1 0.6 1.3 1.8 0.8 2.7l-2.9 4.9c-0.4 0.6-1.1 0.9-1.8 0.9zm16.7 0q-0.5 0-1-0.2c-0.9-0.6-1.3-1.8-0.7-2.7l2.9-4.9c0.6-0.9 1.8-1.2 2.8-0.7c0.9 0.6 1.3 1.8 0.7 2.7l-2.9 4.9c-0.4 0.6-1.1 0.9-1.8 0.9z"/></svg>