<svg version="1.2" xmlns="http://www.w3.org/2000/svg" viewBox="0 0 46 54" width="46" height="54"><defs><linearGradient id="P" gradientUnits="userSpaceOnUse"/><linearGradient id="g1" x1="-0.1" y1="54" x2="45.8" y2="8.1" href="#P"><stop stop-color="#0cf"/><stop offset="1" stop-color="#5ddefe"/></linearGradient><linearGradient id="g2" x1="26.1" y1="8.1" x2="33.5" y2=".7" href="#P"><stop stop-color="#ffbc27"/><stop offset="1" stop-color="#fde252"/></linearGradient><linearGradient id="g3" x1="32.3" y1="24.6" x2="43.6" y2="13.4" href="#P"><stop stop-color="#ffbc27"/><stop offset="1" stop-color="#fde252"/></linearGradient></defs><style>.A{fill:url(#g1)}.B{fill:url(#g2)}.C{fill:url(#g3)}</style><path class="A" d="m23.3 54c-12.9 0-23.4-10.5-23.4-23.4c0-10.4 7-19.6 17-22.5c0.4-0.1 0.9 0 1.2 0.3c0.3 0.3 0.4 0.8 0.3 1.2q-0.8 2.9-0.8 5.8c0 11.5 9.4 20.9 20.9 20.9q2.9 0 5.8-0.8c0.4-0.1 0.9 0 1.2 0.3c0.3 0.3 0.4 0.8 0.3 1.2c-2.9 10-12.1 17-22.5 17z"/><path class="B" d="m30.3 7.3c-0.3 1.1-0.7 1.1-1 0c-0.3-1-1.4-2.1-2.4-2.4c-1.1-0.3-1.1-0.7 0-1c1-0.3 2.1-1.4 2.4-2.4c0.3-1.1 0.7-1.1 1 0c0.3 1 1.4 2.1 2.4 2.4c1.1 0.3 1.1 0.7 0 1c-1 0.3-2.1 1.4-2.4 2.4z"/><path class="C" d="m38.7 23.4c-0.4 1.6-1.1 1.6-1.5 0c-0.4-1.6-2.1-3.2-3.7-3.6c-1.5-0.5-1.5-1.2 0-1.6c1.6-0.4 3.3-2.1 3.7-3.6c0.4-1.6 1.1-1.6 1.5 0c0.5 1.5 2.1 3.2 3.7 3.6c1.6 0.4 1.6 1.1 0 1.6c-1.6 0.4-3.2 2-3.7 3.6z"/></svg>