<svg version="1.2" xmlns="http://www.w3.org/2000/svg" viewBox="0 0 67 36" width="67" height="36"><defs><linearGradient id="P" gradientUnits="userSpaceOnUse"/><linearGradient id="g1" x1="37.5" y1="36" x2="60.5" y2="13" href="#P"><stop stop-color="#d6f2fd"/><stop offset="1" stop-color="#e5f5fd"/></linearGradient></defs><style>.A{fill:#fff}.B{fill:url(#g1)}</style><path class="A" d="m13.3 36c-7.4 0-13.3-5.9-13.3-13.1c0-7.2 5.9-13 13.3-13q0.1 0 0.2 0c2.7-5.9 8.7-10 15.6-10c8.8 0 16.1 6.6 17 15q0.1 0 0.1 0c6 0 10.8 4.7 10.8 10.5c0 5.8-4.8 10.6-10.8 10.6"/><path class="B" d="m39.4 36c-4.7 0-8.4-3.7-8.4-8.3c0-4.6 3.7-8.4 8.4-8.4q0 0 0.1 0c1.7-3.7 5.5-6.3 9.9-6.3c5.5 0 10.1 4.2 10.7 9.5q0 0 0.1 0c3.7 0 6.8 3 6.8 6.8c0 3.7-3.1 6.7-6.8 6.7"/></svg>