<svg version="1.2" xmlns="http://www.w3.org/2000/svg" viewBox="0 0 67 69" width="67" height="69"><defs><linearGradient id="P" gradientUnits="userSpaceOnUse"/><linearGradient id="g1" x1="17.5" y1="66.3" x2="39.5" y2="44.2" href="#P"><stop stop-color="#ffbc27"/><stop offset="1" stop-color="#fde252"/></linearGradient><linearGradient id="g2" x1="37.9" y1="28.9" x2="66.9" y2="0" href="#P"><stop stop-color="#0cf"/><stop offset="1" stop-color="#5ddefe"/></linearGradient><linearGradient id="g3" x1="59.1" y1="8.1" x2="66.5" y2=".7" href="#P"><stop stop-color="#ffbc27"/><stop offset="1" stop-color="#fde252"/></linearGradient><linearGradient id="g4" x1="4.6" y1="11.6" x2="10.3" y2="5.9" href="#P"><stop stop-color="#ffbc27"/><stop offset="1" stop-color="#fde252"/></linearGradient><linearGradient id="g5" x1="10.5" y1="46" x2="46.5" y2="9.9" href="#P"><stop stop-color="#d6f2fd"/><stop offset="1" stop-color="#e5f5fd"/></linearGradient></defs><style>.A{fill:url(#g1)}.B{fill:url(#g2)}.C{fill:url(#g3)}.D{fill:url(#g4)}.E{fill:url(#g5)}.F{fill:#fff}</style><path class="A" d="m31.3 42c1.6 0 2.3 1.2 1.5 2.6l-3 5.1c-0.8 1.4-0.1 2.5 1.6 2.4l6.6-0.3c1.7-0.1 2 0.7 0.7 1.8l-17.4 14.3c-1.3 1.1-1.7 0.7-0.9-0.7l4.8-8.9c0.8-1.5 0.1-2.6-1.6-2.4l-4.3 0.3c-1.6 0.1-2.3-1-1.5-2.4l5.3-9.2c0.8-1.4 2.9-2.6 4.5-2.6z"/><path class="B" d="m52.7 28.9c-8.2 0-14.8-6.6-14.8-14.7c0-6.5 4.4-12.4 10.7-14.2c0.3 0 0.6 0 0.8 0.2c0.2 0.2 0.2 0.5 0.2 0.8q-0.6 1.8-0.6 3.6c0 7.3 6 13.2 13.2 13.2q1.9 0 3.7-0.5c0.3-0.1 0.5 0 0.7 0.2c0.2 0.2 0.3 0.5 0.2 0.8c-1.8 6.3-7.6 10.6-14.1 10.6z"/><path class="C" d="m63.3 7.3c-0.3 1.1-0.7 1.1-1 0c-0.3-1-1.4-2.1-2.4-2.4c-1.1-0.3-1.1-0.7 0-1c1-0.3 2.1-1.4 2.4-2.4c0.3-1.1 0.7-1.1 1 0c0.3 1 1.4 2.1 2.4 2.4c1.1 0.3 1.1 0.7 0 1c-1 0.3-2.1 1.4-2.4 2.4z"/><path class="D" d="m7.9 11c-0.2 0.8-0.6 0.8-0.8 0c-0.2-0.8-1.1-1.7-1.9-1.9c-0.7-0.2-0.7-0.5 0-0.8c0.8-0.2 1.7-1 1.9-1.8c0.2-0.8 0.6-0.8 0.8 0c0.2 0.8 1 1.6 1.8 1.8c0.8 0.3 0.8 0.6 0 0.8c-0.8 0.2-1.6 1.1-1.8 1.9z"/><path class="E" d="m13.3 46c-7.4 0-13.3-5.9-13.3-13.1c0-7.2 5.9-13 13.3-13q0.1 0 0.2 0c2.7-5.9 8.7-10 15.6-10c8.8 0 16.1 6.6 17 15q0.1 0 0.1 0c6 0 10.8 4.7 10.8 10.5c0 5.8-4.8 10.6-10.8 10.6"/><path class="F" d="m39.4 46c-4.7 0-8.4-3.7-8.4-8.3c0-4.6 3.7-8.4 8.4-8.4q0 0 0.1 0c1.7-3.7 5.5-6.3 9.9-6.3c5.5 0 10.1 4.2 10.7 9.5q0 0 0.1 0c3.7 0 6.8 3 6.8 6.8c0 3.7-3.1 6.7-6.8 6.7"/></svg>