<svg version="1.2" xmlns="http://www.w3.org/2000/svg" viewBox="0 0 67 65" width="67" height="65"><defs><linearGradient id="P" gradientUnits="userSpaceOnUse"/><linearGradient id="g1" x1="37.5" y1="36" x2="60.5" y2="13" href="#P"><stop stop-color="#d6f2fd"/><stop offset="1" stop-color="#e5f5fd"/></linearGradient><linearGradient id="g2" x1="4.2" y1="64.7" x2="25.6" y2="43.3" href="#P"><stop stop-color="#0cf"/><stop offset="1" stop-color="#5ddefe"/></linearGradient><linearGradient id="g3" x1="26" y1="63.8" x2="47" y2="42.9" href="#P"><stop stop-color="#d6f2fd"/><stop offset="1" stop-color="#e5f5fd"/></linearGradient></defs><style>.A{fill:#fff}.B{fill:url(#g1)}.C{fill:url(#g2)}.D{fill:url(#g3)}</style><path class="A" d="m13.3 36c-7.4 0-13.3-5.9-13.3-13.1c0-7.2 5.9-13 13.3-13q0.1 0 0.2 0c2.7-5.9 8.7-10 15.6-10c8.8 0 16.1 6.6 17 15q0.1 0 0.1 0c6 0 10.8 4.7 10.8 10.5c0 5.8-4.8 10.6-10.8 10.6"/><path class="B" d="m39.4 36c-4.7 0-8.4-3.7-8.4-8.3c0-4.6 3.7-8.4 8.4-8.4q0 0 0.1 0c1.7-3.7 5.5-6.3 9.9-6.3c5.5 0 10.1 4.2 10.7 9.5q0 0 0.1 0c3.7 0 6.8 3 6.8 6.8c0 3.7-3.1 6.7-6.8 6.7"/><path class="C" d="m6.2 58.7q-0.5 0-1-0.3c-1-0.5-1.3-1.8-0.8-2.8l6.6-11.4c0.6-1 1.8-1.3 2.8-0.7c0.9 0.5 1.3 1.8 0.7 2.7l-6.6 11.5c-0.3 0.6-1 1-1.7 1zm7.2 6.2q-0.5 0-1-0.3c-1-0.6-1.3-1.8-0.7-2.8l10.1-17.6c0.5-1 1.8-1.3 2.7-0.7c1 0.5 1.3 1.8 0.8 2.7l-10.1 17.6c-0.4 0.7-1.1 1.1-1.8 1.1z"/><path class="D" d="m36 42.9c1.1 0 2 0.9 2 2c0 1.1-0.9 2-2 2c-1.1 0-2-0.9-2-2c0-1.1 0.9-2 2-2m10 0c1.1 0 2 0.9 2 2c0 1.1-0.9 2-2 2c-1.1 0-2-0.9-2-2c0-1.1 0.9-2 2-2m-17 18.9c0 1.1-0.9 2-2 2c-1.1 0-2-0.9-2-2c0-1.1 0.9-2 2-2c1.1 0 2 0.9 2 2zm1-8.6c0-1.2 0.9-2.1 2-2.1c1.1 0 2 0.9 2 2.1c0 1.1-0.9 2-2 2c-1.1 0-2-0.9-2-2m14 0c0 1.1-0.9 2-2 2c-1.1 0-2-0.9-2-2c0-1.2 0.9-2.1 2-2.1c1.1 0 2 0.9 2 2.1z"/></svg>