<svg version="1.2" xmlns="http://www.w3.org/2000/svg" viewBox="0 0 65 34" width="65" height="34"><defs><linearGradient id="P" gradientUnits="userSpaceOnUse"/><linearGradient id="g1" x1="15.5" y1="34" x2="49.5" y2="0" href="#P"><stop stop-color="#0cf"/><stop offset="1" stop-color="#5ddefe"/></linearGradient></defs><style>.A{fill:url(#g1)}</style><path class="A" d="m49.3 34c-2.8 0-5.1-2.3-5.1-5.1q0-1.1 0.4-2h-29.3c-0.9 0-1.6-0.7-1.6-1.5c0-0.9 0.7-1.6 1.6-1.6h33.9q0 0 0 0q0 0 0.1 0c2.8 0 5.1 2.3 5.1 5.1c0 2.8-2.3 5.1-5.1 5.1zm10.6-8.8c-2.9 0-5.2-2.3-5.2-5.1q0.1-1 0.4-1.9h-53.6c-0.8 0-1.5-0.7-1.5-1.6c0-0.9 0.7-1.6 1.5-1.6h58.2q0.1 0 0.1 0q0 0 0.1 0c2.8 0 5.1 2.3 5.1 5.1c0 2.8-2.3 5.1-5.1 5.1zm-5.5-20.2c0 2.9-2.3 5.1-5.1 5.1q-0.1 0-0.1 0q0 0 0 0h-23.3c-0.9 0-1.6-0.7-1.6-1.5c0-0.9 0.7-1.6 1.6-1.6h18.7q-0.4-0.9-0.4-2c0-2.8 2.3-5 5.1-5c2.8 0 5.1 2.2 5.1 5z"/></svg>