<svg version="1.2" xmlns="http://www.w3.org/2000/svg" viewBox="0 0 43 42" width="43" height="42"><style>.A{fill:#dff5fe}</style><path class="A" d="m41 3.9h-39c-1.1 0-2-0.9-2-2c0-1.1 0.9-2 2-2h39c1.1 0 2 0.9 2 2c0 1.1-0.9 2-2 2zm-5.1 1.9m-27.9-10.9m23 18.5h-21c-1.1 0-2-0.9-2-2c0-1.1 0.9-2 2-2h21c1.1 0 2 0.9 2 2c0 1.1-0.9 2-2 2zm3 9.5h-18c-1.1 0-2-0.9-2-2c0-1.1 0.9-2 2-2h18c1.1 0 2 0.9 2 2c0 1.1-0.9 2-2 2zm-6 9.5h-12c-1.1 0-2-0.9-2-1.9c0-1.1 0.9-2 2-2h12c1.1 0 2 0.9 2 2c0 1-0.9 1.9-2 1.9zm-9.5 9.6h-1c-1.1 0-2-0.9-2-2c0-1.1 0.9-2 2-2h1c1.1 0 2 0.9 2 2c0 1.1-0.9 2-2 2z"/></svg>